<svg width="37" height="37" viewBox="0 0 37 37" fill="none" xmlns="http://www.w3.org/2000/svg">
<g clip-path="url(#clip0_110:210)">
<path d="M37.0007 3.6741C37.0029 3.17161 36.8029 2.68934 36.4457 2.33594L34.6648 0.555024C34.313 0.199436 33.8336 -0.000425465 33.3334 6.80072e-07H33.3273C32.8301 0.000305069 32.354 0.200289 32.0057 0.555024L23.9275 8.63326H8.01761V1.85002C8.01761 0.828243 7.18931 6.80072e-07 6.16759 6.80072e-07H4.93427C2.21096 0.00304457 0.00402045 2.20999 0.000976562 4.93329V32.2212C0.155302 34.9238 2.40632 37.0278 5.11313 36.9997H35.1507C36.1724 36.9997 37.0007 36.1715 37.0007 35.1497V10.4833C37.0007 9.46157 36.1724 8.63326 35.1507 8.63326H32.8074L36.4457 4.99496C36.7997 4.6465 36.9996 4.17086 37.0007 3.6741ZM22.0652 15.4166C21.9346 15.4343 21.8034 15.3884 21.7124 15.2932C21.6206 15.202 21.5753 15.0741 21.5891 14.9454L21.8228 12.8488C21.8326 12.805 21.845 12.7617 21.8598 12.7193L24.2888 15.1483C24.2488 15.157 24.2124 15.1767 24.1704 15.1816L22.0652 15.4166ZM25.2958 14.4095L22.5973 11.7104L29.3189 4.98881L32.0162 7.68546L25.2958 14.4095ZM30.1885 4.11619L31.103 3.20229L33.799 5.89894L32.8851 6.81344L30.1885 4.11619ZM1.2343 4.93329C1.23637 2.89072 2.8917 1.23533 4.93427 1.23332H6.16759C6.50814 1.23332 6.78429 1.5094 6.78429 1.84996V26.5164C6.78429 26.857 6.5082 27.1331 6.16759 27.1331H4.93427C3.51758 27.1326 2.16938 27.7424 1.2343 28.8066V4.93329ZM35.1507 9.86659C35.4913 9.86659 35.7674 10.1427 35.7674 10.4833V35.1497C35.7674 35.4903 35.4913 35.7664 35.1507 35.7664H5.11313C3.07738 35.8007 1.37194 34.2335 1.2343 32.2021V32.0664C1.23637 30.0238 2.8917 28.3685 4.93427 28.3664H6.16759C7.18931 28.3664 8.01755 27.5382 8.01755 26.5165V9.86659H22.6941L21.2937 11.267C20.9027 11.6523 20.6568 12.1606 20.5975 12.7063L20.3637 14.8072C20.3445 15.0122 20.364 15.2188 20.4211 15.4165H9.86756C9.52701 15.4165 9.25087 15.6926 9.25087 16.0332C9.25087 16.3738 9.52695 16.6498 9.86756 16.6498H11.7176V33.2997C11.7176 33.6403 11.9937 33.9164 12.3343 33.9164C12.6749 33.9164 12.951 33.6403 12.951 33.2997V24.6665H19.7342V29.5998H15.4176C15.077 29.5998 14.8009 29.8758 14.8009 30.2164C14.8009 30.5569 15.077 30.8331 15.4176 30.8331H27.7508C28.4319 30.8331 28.9841 30.2809 28.9841 29.5998V20.3499C28.9841 20.0093 28.708 19.7332 28.3675 19.7332C28.0269 19.7332 27.7508 20.0093 27.7508 20.3499V23.4331H12.9509V16.6499H22.0208C22.0809 16.65 22.1411 16.6467 22.2009 16.64L24.308 16.4002C24.8428 16.3395 25.342 16.1018 25.7263 15.7249L31.5772 9.86665H35.1507V9.86659ZM27.7508 24.6665V29.5998H20.9675V24.6665H27.7508ZM35.5762 4.12051L34.6709 5.02638L31.9749 2.33034L32.8808 1.42448C32.9993 1.30285 33.1617 1.23393 33.3316 1.23332C33.5045 1.23375 33.6699 1.30352 33.791 1.42698L35.5744 3.20668C35.6984 3.3288 35.768 3.49573 35.7674 3.66978C35.7669 3.83962 35.698 4.00211 35.5762 4.12051Z" fill="black"/>
</g>
<defs>
<clipPath id="clip0_110:210">
<rect width="37" height="37" fill="white"/>
</clipPath>
</defs>
</svg>
