<svg id="Слой_1" data-name="Слой 1" xmlns="http://www.w3.org/2000/svg" viewBox="0 0 208.15 246.99"><defs><style>.cls-1{fill:#bdd3cc;}</style></defs><title>бак</title><path class="cls-1" d="M257.42,556.33c-2.59-1.37-5.44-2.43-7.73-4.2-3.72-2.87-5.43-7-5.66-11.69q-1.64-34.1-3.23-68.19-2.09-43.81-4.21-87.62-1.71-36-3.39-72c0-1,0-2.07,0-3.27H441.32c-.32,7.27-.61,14.36-.94,21.44l-3.6,75.52-4.23,88.58c-.67,13.91-1.65,27.82-1.89,41.74-.17,9.94-4,16.68-13.66,19.71Zm67.72-123.84v46.9c0,6.06-.06,12.12,0,18.18.06,5.31,2.55,7.77,7.84,7.9,2.34.06,4.68,0,7,0,7.11,0,9.26-2.2,9.26-9.4V407.41c0-13.08,0-26.16,0-39.24,0-5.61-2.59-8.17-8.16-8.3-2.13,0-4.26,0-6.38,0-7.34,0-9.58,2.21-9.58,9.45Zm-46.69.24v35.73c0,9.78,0,19.56,0,29.35,0,5,2.45,7.51,7.38,7.64,3.5.09,7,.1,10.51-.13a5.94,5.94,0,0,0,5.83-5.35,22,22,0,0,0,.32-3.8q0-63.48,0-127c0-.53,0-1.06,0-1.59-.27-5.1-2.69-7.55-7.76-7.73-2.44-.09-4.89,0-7.34,0-6.62,0-9,2.38-9,9.06Q278.45,400.84,278.45,432.73ZM396,432.9q0-32.38,0-64.76c0-5.64-2.51-8.15-8.14-8.27-2.12,0-4.25,0-6.38,0-7.32,0-9.53,2.19-9.53,9.5q0,63.31,0,126.64a22.44,22.44,0,0,0,.23,3.48c.6,3.7,2.64,5.65,6.39,5.9,2.75.18,5.52.1,8.28.09,7.05,0,9.16-2.11,9.16-9.1Q396,464.64,396,432.9Z" transform="translate(-233.18 -309.34)"/></svg>