<svg width="18" height="19" viewBox="0 0 18 19" fill="none" xmlns="http://www.w3.org/2000/svg">
<rect width="18" height="18" rx="8" fill="#2D607C"/>
<path d="M8.17188 11.5443C8.17188 10.9063 8.24935 10.3982 8.4043 10.0199C8.55924 9.64167 8.8418 9.27025 9.25195 8.90567C9.66667 8.53653 9.94238 8.23803 10.0791 8.01016C10.2158 7.77774 10.2842 7.53393 10.2842 7.27872C10.2842 6.50853 9.92871 6.12344 9.21777 6.12344C8.88053 6.12344 8.60938 6.22826 8.4043 6.4379C8.20378 6.64297 8.09896 6.92781 8.08984 7.29239H6.10742C6.11654 6.42195 6.39681 5.74063 6.94824 5.24844C7.50423 4.75626 8.26074 4.51016 9.21777 4.51016C10.1839 4.51016 10.9336 4.74486 11.4668 5.21426C12 5.67911 12.2666 6.33764 12.2666 7.18985C12.2666 7.57722 12.18 7.94408 12.0068 8.29044C11.8337 8.63223 11.5306 9.01277 11.0977 9.43204L10.5439 9.9584C10.1976 10.2911 9.99935 10.6807 9.94922 11.1273L9.92188 11.5443H8.17188ZM7.97363 13.643C7.97363 13.3376 8.07617 13.087 8.28125 12.891C8.49089 12.6905 8.75749 12.5902 9.08105 12.5902C9.40462 12.5902 9.66895 12.6905 9.87402 12.891C10.0837 13.087 10.1885 13.3376 10.1885 13.643C10.1885 13.9438 10.0859 14.1921 9.88086 14.3881C9.68034 14.5841 9.41374 14.682 9.08105 14.682C8.74837 14.682 8.47949 14.5841 8.27441 14.3881C8.07389 14.1921 7.97363 13.9438 7.97363 13.643Z" fill="#BDD3CC"/>
</svg>
