<svg width="18" height="14" viewBox="0 0 18 14" fill="none" xmlns="http://www.w3.org/2000/svg">
<g clip-path="url(#clip0_141:83)">
<path d="M5.0625 6.7879H3.9375C3.79764 6.7879 3.66351 6.83579 3.56461 6.92104C3.46572 7.00628 3.41016 7.1219 3.41016 7.24245C3.41016 7.36301 3.46572 7.47862 3.56461 7.56387C3.66351 7.64911 3.79764 7.697 3.9375 7.697H5.0625C5.20236 7.697 5.33649 7.64911 5.43539 7.56387C5.53428 7.47862 5.58984 7.36301 5.58984 7.24245C5.58984 7.1219 5.53428 7.00628 5.43539 6.92104C5.33649 6.83579 5.20236 6.7879 5.0625 6.7879Z" fill="#2D607C"/>
<path d="M5.0625 8.72727H3.9375C3.79764 8.72727 3.66351 8.77516 3.56461 8.86041C3.46572 8.94565 3.41016 9.06126 3.41016 9.18182C3.41016 9.30237 3.46572 9.41799 3.56461 9.50323C3.66351 9.58847 3.79764 9.63636 3.9375 9.63636H5.0625C5.20236 9.63636 5.33649 9.58847 5.43539 9.50323C5.53428 9.41799 5.58984 9.30237 5.58984 9.18182C5.58984 9.06126 5.53428 8.94565 5.43539 8.86041C5.33649 8.77516 5.20236 8.72727 5.0625 8.72727Z" fill="#2D607C"/>
<path d="M5.0625 10.6667H3.9375C3.79764 10.6667 3.66351 10.7146 3.56461 10.7998C3.46572 10.8851 3.41016 11.0007 3.41016 11.1212C3.41016 11.2418 3.46572 11.3574 3.56461 11.4426C3.66351 11.5279 3.79764 11.5758 3.9375 11.5758H5.0625C5.20236 11.5758 5.33649 11.5279 5.43539 11.4426C5.53428 11.3574 5.58984 11.2418 5.58984 11.1212C5.58984 11.0007 5.53428 10.8851 5.43539 10.7998C5.33649 10.7146 5.20236 10.6667 5.0625 10.6667Z" fill="#2D607C"/>
<path d="M9.5625 6.7879H8.4375C8.29764 6.7879 8.16351 6.83579 8.06461 6.92104C7.96572 7.00628 7.91016 7.1219 7.91016 7.24245C7.91016 7.36301 7.96572 7.47862 8.06461 7.56387C8.16351 7.64911 8.29764 7.697 8.4375 7.697H9.5625C9.70236 7.697 9.83649 7.64911 9.93539 7.56387C10.0343 7.47862 10.0898 7.36301 10.0898 7.24245C10.0898 7.1219 10.0343 7.00628 9.93539 6.92104C9.83649 6.83579 9.70236 6.7879 9.5625 6.7879Z" fill="#2D607C"/>
<path d="M9.5625 8.72727H8.4375C8.29764 8.72727 8.16351 8.77516 8.06461 8.86041C7.96572 8.94565 7.91016 9.06126 7.91016 9.18182C7.91016 9.30237 7.96572 9.41799 8.06461 9.50323C8.16351 9.58847 8.29764 9.63636 8.4375 9.63636H9.5625C9.70236 9.63636 9.83649 9.58847 9.93539 9.50323C10.0343 9.41799 10.0898 9.30237 10.0898 9.18182C10.0898 9.06126 10.0343 8.94565 9.93539 8.86041C9.83649 8.77516 9.70236 8.72727 9.5625 8.72727Z" fill="#2D607C"/>
<path d="M9.5625 10.6667H8.4375C8.29764 10.6667 8.16351 10.7146 8.06461 10.7998C7.96572 10.8851 7.91016 11.0007 7.91016 11.1212C7.91016 11.2418 7.96572 11.3574 8.06461 11.4426C8.16351 11.5279 8.29764 11.5758 8.4375 11.5758H9.5625C9.70236 11.5758 9.83649 11.5279 9.93539 11.4426C10.0343 11.3574 10.0898 11.2418 10.0898 11.1212C10.0898 11.0007 10.0343 10.8851 9.93539 10.7998C9.83649 10.7146 9.70236 10.6667 9.5625 10.6667Z" fill="#2D607C"/>
<path d="M14.0625 6.7879H12.9375C12.7976 6.7879 12.6635 6.83579 12.5646 6.92104C12.4657 7.00628 12.4102 7.1219 12.4102 7.24245C12.4102 7.36301 12.4657 7.47862 12.5646 7.56387C12.6635 7.64911 12.7976 7.697 12.9375 7.697H14.0625C14.2024 7.697 14.3365 7.64911 14.4354 7.56387C14.5343 7.47862 14.5898 7.36301 14.5898 7.24245C14.5898 7.1219 14.5343 7.00628 14.4354 6.92104C14.3365 6.83579 14.2024 6.7879 14.0625 6.7879Z" fill="#2D607C"/>
<path d="M14.0625 8.72727H12.9375C12.7976 8.72727 12.6635 8.77516 12.5646 8.86041C12.4657 8.94565 12.4102 9.06126 12.4102 9.18182C12.4102 9.30237 12.4657 9.41799 12.5646 9.50323C12.6635 9.58847 12.7976 9.63636 12.9375 9.63636H14.0625C14.2024 9.63636 14.3365 9.58847 14.4354 9.50323C14.5343 9.41799 14.5898 9.30237 14.5898 9.18182C14.5898 9.06126 14.5343 8.94565 14.4354 8.86041C14.3365 8.77516 14.2024 8.72727 14.0625 8.72727Z" fill="#2D607C"/>
<path d="M14.0625 10.6667H12.9375C12.7976 10.6667 12.6635 10.7146 12.5646 10.7998C12.4657 10.8851 12.4102 11.0007 12.4102 11.1212C12.4102 11.2418 12.4657 11.3574 12.5646 11.4426C12.6635 11.5279 12.7976 11.5758 12.9375 11.5758H14.0625C14.2024 11.5758 14.3365 11.5279 14.4354 11.4426C14.5343 11.3574 14.5898 11.2418 14.5898 11.1212C14.5898 11.0007 14.5343 10.8851 14.4354 10.7998C14.3365 10.7146 14.2024 10.6667 14.0625 10.6667Z" fill="#2D607C"/>
<path d="M16.418 1.21212H15.1523V0.454545C15.1523 0.333993 15.0968 0.218377 14.9979 0.133133C14.899 0.0478895 14.7649 0 14.625 0C14.4851 0 14.351 0.0478895 14.2521 0.133133C14.1532 0.218377 14.0977 0.333993 14.0977 0.454545V1.21212H9.52734V0.454545C9.52734 0.333993 9.47178 0.218377 9.37289 0.133133C9.27399 0.0478895 9.13986 0 9 0C8.86014 0 8.72601 0.0478895 8.62711 0.133133C8.52822 0.218377 8.47266 0.333993 8.47266 0.454545V1.21212H3.90234V0.454545C3.90234 0.333993 3.84678 0.218377 3.74789 0.133133C3.64899 0.0478895 3.51486 0 3.375 0C3.23514 0 3.10101 0.0478895 3.00211 0.133133C2.90322 0.218377 2.84766 0.333993 2.84766 0.454545V1.21212H1.58203C1.16259 1.21252 0.760468 1.35632 0.46388 1.61196C0.167292 1.86761 0.000465267 2.21422 0 2.57576L0 12.6364C0.000465267 12.9979 0.167292 13.3445 0.46388 13.6002C0.760468 13.8558 1.16259 13.9996 1.58203 14H16.418C16.8374 13.9996 17.2395 13.8558 17.5361 13.6002C17.8327 13.3445 17.9995 12.9979 18 12.6364V2.57576C17.9995 2.21422 17.8327 1.86761 17.5361 1.61196C17.2395 1.35632 16.8374 1.21252 16.418 1.21212ZM1.05469 2.57576C1.05469 2.4552 1.11025 2.33959 1.20914 2.25435C1.30804 2.1691 1.44217 2.12121 1.58203 2.12121H2.84766V2.87879C2.84766 2.99934 2.90322 3.11496 3.00211 3.2002C3.10101 3.28544 3.23514 3.33333 3.375 3.33333C3.51486 3.33333 3.64899 3.28544 3.74789 3.2002C3.84678 3.11496 3.90234 2.99934 3.90234 2.87879V2.12121H8.47266V2.87879C8.47266 2.99934 8.52822 3.11496 8.62711 3.2002C8.72601 3.28544 8.86014 3.33333 9 3.33333C9.13986 3.33333 9.27399 3.28544 9.37289 3.2002C9.47178 3.11496 9.52734 2.99934 9.52734 2.87879V2.12121H14.0977V2.87879C14.0977 2.99934 14.1532 3.11496 14.2521 3.2002C14.351 3.28544 14.4851 3.33333 14.625 3.33333C14.7649 3.33333 14.899 3.28544 14.9979 3.2002C15.0968 3.11496 15.1523 2.99934 15.1523 2.87879V2.12121H16.418C16.5578 2.12121 16.692 2.1691 16.7909 2.25435C16.8898 2.33959 16.9453 2.4552 16.9453 2.57576V4.36364H1.05469V2.57576ZM16.418 13.0909H1.58203C1.44217 13.0909 1.30804 13.043 1.20914 12.9578C1.11025 12.8725 1.05469 12.7569 1.05469 12.6364V5.27273H16.9453V12.6364C16.9453 12.7569 16.8898 12.8725 16.7909 12.9578C16.692 13.043 16.5578 13.0909 16.418 13.0909Z" fill="#2D607C"/>
</g>
<defs>
<clipPath id="clip0_141:83">
<rect width="18" height="14" fill="white"/>
</clipPath>
</defs>
</svg>
