<svg id="Слой_1" data-name="Слой 1" xmlns="http://www.w3.org/2000/svg" viewBox="0 0 156.64 156.53"><defs><style>.cls-1{fill:#bdd3cc;}</style></defs><title>cross</title><path class="cls-1" d="M206.9,57.38c0,4-1.78,7-4.49,9.71q-25.84,25.8-51.64,51.63a18.26,18.26,0,0,0-1.42,1.5,4.76,4.76,0,0,0,0,6.17,20,20,0,0,0,1.42,1.5q25.88,25.87,51.76,51.75c3.82,3.81,5.35,8.21,3.71,13.46-2.47,7.88-12.61,11-19.16,6a27.88,27.88,0,0,1-2.56-2.29l-51.4-51.39c-3.38-3.38-5.67-3.38-9,0L72.32,197.16C67.71,201.77,62,202.79,56.63,200a12.34,12.34,0,0,1-3.79-18.24A29.51,29.51,0,0,1,55,179.32q25.82-25.83,51.6-51.67a8.71,8.71,0,0,0,2.22-3.56c.58-2-.59-3.59-2-5q-15.3-15.25-30.57-30.55Q65.37,77.63,54.48,66.73C49.92,62.15,49,56.44,52,51.19A12.39,12.39,0,0,1,70.4,47.71c.79.66,1.55,1.37,2.28,2.1q25.71,25.68,51.4,51.38c3.3,3.3,5.76,3.29,9.08,0l51.76-51.75c4.54-4.54,10.3-5.63,15.55-2.82C204.74,48.87,206.76,52.6,206.9,57.38Z" transform="translate(-50.26 -45)"/></svg>